<mxfile host="65bd71144e">
    <diagram id="O3-1vDAYCzfi5DcVAG2a" name="q1">
        <mxGraphModel dx="1400" dy="657" grid="0" gridSize="10" guides="1" tooltips="1" connect="1" arrows="1" fold="1" page="0" pageScale="1" pageWidth="827" pageHeight="1169" math="0" shadow="0">
            <root>
                <mxCell id="0"/>
                <mxCell id="1" parent="0"/>
                <mxCell id="4" value="&lt;u&gt;Vehicle Identification Number (VAN)&lt;/u&gt;" style="ellipse;whiteSpace=wrap;html=1;fillColor=#f0a30a;fontColor=#000000;strokeColor=#BD7000;" parent="1" vertex="1">
                    <mxGeometry x="130" y="20" width="130" height="80" as="geometry"/>
                </mxCell>
                <mxCell id="11" value="" style="endArrow=none;html=1;exitX=0.5;exitY=1;exitDx=0;exitDy=0;entryX=0.5;entryY=0;entryDx=0;entryDy=0;" parent="1" source="4" target="33" edge="1">
                    <mxGeometry width="50" height="50" relative="1" as="geometry">
                        <mxPoint x="190" y="210" as="sourcePoint"/>
                        <mxPoint x="250" y="180" as="targetPoint"/>
                    </mxGeometry>
                </mxCell>
                <mxCell id="17" value="name" style="ellipse;whiteSpace=wrap;html=1;align=center;fillColor=#f0a30a;fontColor=#000000;strokeColor=#BD7000;" parent="1" vertex="1">
                    <mxGeometry x="424" y="500" width="100" height="40" as="geometry"/>
                </mxCell>
                <mxCell id="19" value="" style="endArrow=none;html=1;rounded=0;exitX=0.5;exitY=0;exitDx=0;exitDy=0;entryX=0.25;entryY=1;entryDx=0;entryDy=0;" parent="1" source="17" target="46" edge="1">
                    <mxGeometry relative="1" as="geometry">
                        <mxPoint x="10" y="270" as="sourcePoint"/>
                        <mxPoint x="510" y="450" as="targetPoint"/>
                    </mxGeometry>
                </mxCell>
                <mxCell id="20" value="name" style="ellipse;whiteSpace=wrap;html=1;align=center;fillColor=#f0a30a;fontColor=#000000;strokeColor=#BD7000;" parent="1" vertex="1">
                    <mxGeometry x="560" y="340" width="100" height="40" as="geometry"/>
                </mxCell>
                <mxCell id="22" value="" style="endArrow=none;html=1;rounded=0;entryX=0.5;entryY=0;entryDx=0;entryDy=0;exitX=0.5;exitY=1;exitDx=0;exitDy=0;" parent="1" source="34" target="20" edge="1">
                    <mxGeometry relative="1" as="geometry">
                        <mxPoint x="400" y="310" as="sourcePoint"/>
                        <mxPoint x="464" y="449.44" as="targetPoint"/>
                    </mxGeometry>
                </mxCell>
                <mxCell id="25" value="name" style="ellipse;whiteSpace=wrap;html=1;align=center;fillColor=#f0a30a;fontColor=#000000;strokeColor=#BD7000;" parent="1" vertex="1">
                    <mxGeometry x="150" y="470" width="100" height="40" as="geometry"/>
                </mxCell>
                <mxCell id="26" value="name" style="ellipse;whiteSpace=wrap;html=1;align=center;fillColor=#f0a30a;fontColor=#000000;strokeColor=#BD7000;" parent="1" vertex="1">
                    <mxGeometry x="-70" y="420" width="100" height="40" as="geometry"/>
                </mxCell>
                <mxCell id="28" value="&lt;u&gt;customer_id&lt;/u&gt;" style="ellipse;whiteSpace=wrap;html=1;align=center;fillColor=#f0a30a;fontColor=#000000;strokeColor=#BD7000;" parent="1" vertex="1">
                    <mxGeometry x="280" y="470" width="100" height="40" as="geometry"/>
                </mxCell>
                <mxCell id="30" value="" style="endArrow=none;html=1;rounded=0;entryX=0;entryY=1;entryDx=0;entryDy=0;exitX=1;exitY=0;exitDx=0;exitDy=0;" parent="1" source="26" target="36" edge="1">
                    <mxGeometry relative="1" as="geometry">
                        <mxPoint x="67.67533905932811" y="295.85786437626894" as="sourcePoint"/>
                        <mxPoint x="200" y="300" as="targetPoint"/>
                    </mxGeometry>
                </mxCell>
                <mxCell id="31" value="" style="endArrow=none;html=1;rounded=0;entryX=0.25;entryY=1;entryDx=0;entryDy=0;exitX=0.5;exitY=0;exitDx=0;exitDy=0;" parent="1" source="25" target="45" edge="1">
                    <mxGeometry relative="1" as="geometry">
                        <mxPoint x="279.9953390593281" y="535.8578643762689" as="sourcePoint"/>
                        <mxPoint x="364.64" y="510" as="targetPoint"/>
                    </mxGeometry>
                </mxCell>
                <mxCell id="32" value="" style="endArrow=none;html=1;rounded=0;entryX=0.5;entryY=0;entryDx=0;entryDy=0;exitX=0.75;exitY=1;exitDx=0;exitDy=0;" parent="1" source="45" target="28" edge="1">
                    <mxGeometry relative="1" as="geometry">
                        <mxPoint x="404" y="510" as="sourcePoint"/>
                        <mxPoint x="508.64" y="484.14" as="targetPoint"/>
                    </mxGeometry>
                </mxCell>
                <mxCell id="33" value="Vehicle" style="rounded=1;arcSize=10;whiteSpace=wrap;html=1;align=center;fillColor=#0050ef;fontColor=#ffffff;strokeColor=#001DBC;" parent="1" vertex="1">
                    <mxGeometry x="150" y="150" width="100" height="40" as="geometry"/>
                </mxCell>
                <mxCell id="34" value="Model" style="rounded=1;arcSize=10;whiteSpace=wrap;html=1;align=center;fillColor=#0050ef;fontColor=#ffffff;strokeColor=#001DBC;" parent="1" vertex="1">
                    <mxGeometry x="560" y="250" width="100" height="40" as="geometry"/>
                </mxCell>
                <mxCell id="35" value="Options" style="rounded=1;arcSize=10;whiteSpace=wrap;html=1;align=center;fillColor=#0050ef;fontColor=#ffffff;strokeColor=#001DBC;" parent="1" vertex="1">
                    <mxGeometry x="560" y="80" width="100" height="40" as="geometry"/>
                </mxCell>
                <mxCell id="36" value="Dealer" style="rounded=1;arcSize=10;whiteSpace=wrap;html=1;align=center;fillColor=#0050ef;fontColor=#ffffff;strokeColor=#001DBC;" parent="1" vertex="1">
                    <mxGeometry x="70" y="370" width="100" height="40" as="geometry"/>
                </mxCell>
                <mxCell id="45" value="Customer" style="rounded=1;arcSize=10;whiteSpace=wrap;html=1;align=center;fillColor=#0050ef;fontColor=#ffffff;strokeColor=#001DBC;" parent="1" vertex="1">
                    <mxGeometry x="220" y="370" width="100" height="40" as="geometry"/>
                </mxCell>
                <mxCell id="46" value="Brand" style="rounded=1;arcSize=10;whiteSpace=wrap;html=1;align=center;fillColor=#0050ef;fontColor=#ffffff;strokeColor=#001DBC;" parent="1" vertex="1">
                    <mxGeometry x="450" y="420" width="100" height="40" as="geometry"/>
                </mxCell>
                <mxCell id="47" value="" style="endArrow=none;html=1;rounded=0;entryX=0.5;entryY=1;entryDx=0;entryDy=0;exitX=0.5;exitY=0;exitDx=0;exitDy=0;" parent="1" source="68" target="35" edge="1">
                    <mxGeometry relative="1" as="geometry">
                        <mxPoint x="490" y="200" as="sourcePoint"/>
                        <mxPoint x="650" y="200" as="targetPoint"/>
                    </mxGeometry>
                </mxCell>
                <mxCell id="49" value="dealt_by" style="shape=rhombus;perimeter=rhombusPerimeter;whiteSpace=wrap;html=1;align=center;fillColor=#B7E8B7;strokeColor=#82b366;fontColor=#000000;" parent="1" vertex="1">
                    <mxGeometry x="90" y="240" width="100" height="60" as="geometry"/>
                </mxCell>
                <mxCell id="50" value="owned_by" style="shape=rhombus;perimeter=rhombusPerimeter;whiteSpace=wrap;html=1;align=center;fillColor=#B7E8B7;strokeColor=#82b366;fontColor=#000000;" parent="1" vertex="1">
                    <mxGeometry x="210" y="240" width="100" height="60" as="geometry"/>
                </mxCell>
                <mxCell id="52" value="" style="endArrow=none;html=1;rounded=0;entryX=0.25;entryY=1;entryDx=0;entryDy=0;exitX=0.5;exitY=0;exitDx=0;exitDy=0;" parent="1" source="49" target="33" edge="1">
                    <mxGeometry relative="1" as="geometry">
                        <mxPoint x="80" y="390" as="sourcePoint"/>
                        <mxPoint x="170" y="350" as="targetPoint"/>
                    </mxGeometry>
                </mxCell>
                <mxCell id="53" value="" style="endArrow=none;html=1;rounded=0;entryX=0.5;entryY=1;entryDx=0;entryDy=0;exitX=0.5;exitY=0;exitDx=0;exitDy=0;" parent="1" source="36" target="49" edge="1">
                    <mxGeometry relative="1" as="geometry">
                        <mxPoint x="90" y="400" as="sourcePoint"/>
                        <mxPoint x="180" y="360" as="targetPoint"/>
                    </mxGeometry>
                </mxCell>
                <mxCell id="54" value="" style="endArrow=none;html=1;rounded=0;entryX=0.75;entryY=1;entryDx=0;entryDy=0;exitX=0.5;exitY=0;exitDx=0;exitDy=0;" parent="1" source="50" target="33" edge="1">
                    <mxGeometry relative="1" as="geometry">
                        <mxPoint x="100" y="410" as="sourcePoint"/>
                        <mxPoint x="190" y="370" as="targetPoint"/>
                    </mxGeometry>
                </mxCell>
                <mxCell id="55" value="" style="endArrow=none;html=1;rounded=0;entryX=0.5;entryY=1;entryDx=0;entryDy=0;exitX=0.5;exitY=0;exitDx=0;exitDy=0;" parent="1" source="45" target="50" edge="1">
                    <mxGeometry relative="1" as="geometry">
                        <mxPoint x="110" y="420" as="sourcePoint"/>
                        <mxPoint x="200" y="380" as="targetPoint"/>
                    </mxGeometry>
                </mxCell>
                <mxCell id="56" value="&lt;u&gt;dealer_id&lt;/u&gt;" style="ellipse;whiteSpace=wrap;html=1;align=center;fillColor=#f0a30a;fontColor=#000000;strokeColor=#BD7000;" parent="1" vertex="1">
                    <mxGeometry x="30" y="460" width="100" height="40" as="geometry"/>
                </mxCell>
                <mxCell id="57" value="&lt;u&gt;model_id&lt;/u&gt;" style="ellipse;whiteSpace=wrap;html=1;align=center;fillColor=#f0a30a;fontColor=#000000;strokeColor=#BD7000;" parent="1" vertex="1">
                    <mxGeometry x="660" y="310" width="100" height="40" as="geometry"/>
                </mxCell>
                <mxCell id="59" value="" style="endArrow=none;html=1;rounded=0;entryX=0;entryY=0;entryDx=0;entryDy=0;exitX=0.75;exitY=1;exitDx=0;exitDy=0;" parent="1" source="34" target="57" edge="1">
                    <mxGeometry relative="1" as="geometry">
                        <mxPoint x="660" y="290" as="sourcePoint"/>
                        <mxPoint x="710" y="300" as="targetPoint"/>
                    </mxGeometry>
                </mxCell>
                <mxCell id="60" value="" style="endArrow=none;html=1;rounded=0;exitX=0.5;exitY=0;exitDx=0;exitDy=0;entryX=0.5;entryY=1;entryDx=0;entryDy=0;" parent="1" source="56" target="36" edge="1">
                    <mxGeometry relative="1" as="geometry">
                        <mxPoint x="90" y="400" as="sourcePoint"/>
                        <mxPoint x="120" y="410" as="targetPoint"/>
                    </mxGeometry>
                </mxCell>
                <mxCell id="63" value="" style="endArrow=none;html=1;rounded=0;entryX=1;entryY=0.5;entryDx=0;entryDy=0;exitX=0;exitY=0.5;exitDx=0;exitDy=0;" parent="1" source="34" target="70" edge="1">
                    <mxGeometry relative="1" as="geometry">
                        <mxPoint x="550" y="250" as="sourcePoint"/>
                        <mxPoint x="470" y="310" as="targetPoint"/>
                    </mxGeometry>
                </mxCell>
                <mxCell id="64" value="address" style="ellipse;whiteSpace=wrap;html=1;align=center;fillColor=#f0a30a;fontColor=#000000;strokeColor=#BD7000;" parent="1" vertex="1">
                    <mxGeometry x="210" y="530" width="100" height="40" as="geometry"/>
                </mxCell>
                <mxCell id="65" value="" style="endArrow=none;html=1;rounded=0;entryX=0.5;entryY=0;entryDx=0;entryDy=0;exitX=0.5;exitY=1;exitDx=0;exitDy=0;" parent="1" source="45" target="64" edge="1">
                    <mxGeometry relative="1" as="geometry">
                        <mxPoint x="330" y="500" as="sourcePoint"/>
                        <mxPoint x="310" y="620" as="targetPoint"/>
                    </mxGeometry>
                </mxCell>
                <mxCell id="66" value="address" style="ellipse;whiteSpace=wrap;html=1;align=center;fillColor=#f0a30a;fontColor=#000000;strokeColor=#BD7000;" parent="1" vertex="1">
                    <mxGeometry x="-90" y="360" width="100" height="40" as="geometry"/>
                </mxCell>
                <mxCell id="67" value="" style="endArrow=none;html=1;rounded=0;entryX=0;entryY=0.25;entryDx=0;entryDy=0;exitX=1;exitY=0.5;exitDx=0;exitDy=0;" parent="1" source="66" target="36" edge="1">
                    <mxGeometry relative="1" as="geometry">
                        <mxPoint x="100" y="490" as="sourcePoint"/>
                        <mxPoint x="180" y="410" as="targetPoint"/>
                    </mxGeometry>
                </mxCell>
                <mxCell id="68" value="has_options" style="shape=rhombus;perimeter=rhombusPerimeter;whiteSpace=wrap;html=1;align=center;fillColor=#B7E8B7;strokeColor=#82b366;fontColor=#000000;" parent="1" vertex="1">
                    <mxGeometry x="560" y="150" width="100" height="50" as="geometry"/>
                </mxCell>
                <mxCell id="69" value="" style="endArrow=none;html=1;rounded=0;entryX=0.5;entryY=0;entryDx=0;entryDy=0;exitX=0.5;exitY=1;exitDx=0;exitDy=0;" parent="1" source="68" target="34" edge="1">
                    <mxGeometry relative="1" as="geometry">
                        <mxPoint x="600" y="230" as="sourcePoint"/>
                        <mxPoint x="500" y="140" as="targetPoint"/>
                    </mxGeometry>
                </mxCell>
                <mxCell id="70" value="has_vehicle" style="shape=rhombus;perimeter=rhombusPerimeter;whiteSpace=wrap;html=1;align=center;fillColor=#B7E8B7;strokeColor=#82b366;fontColor=#000000;" parent="1" vertex="1">
                    <mxGeometry x="374" y="240" width="100" height="60" as="geometry"/>
                </mxCell>
                <mxCell id="72" value="has_model" style="shape=rhombus;perimeter=rhombusPerimeter;whiteSpace=wrap;html=1;align=center;fillColor=#B7E8B7;strokeColor=#82b366;fontColor=#000000;" parent="1" vertex="1">
                    <mxGeometry x="450" y="340" width="100" height="60" as="geometry"/>
                </mxCell>
                <mxCell id="73" value="" style="endArrow=none;html=1;rounded=0;entryX=0.5;entryY=0;entryDx=0;entryDy=0;exitX=0.5;exitY=1;exitDx=0;exitDy=0;" parent="1" source="72" target="46" edge="1">
                    <mxGeometry relative="1" as="geometry">
                        <mxPoint x="605" y="250" as="sourcePoint"/>
                        <mxPoint x="560" y="420" as="targetPoint"/>
                    </mxGeometry>
                </mxCell>
                <mxCell id="74" value="&lt;u&gt;brand_id&lt;/u&gt;" style="ellipse;whiteSpace=wrap;html=1;align=center;fillColor=#f0a30a;fontColor=#000000;strokeColor=#BD7000;" parent="1" vertex="1">
                    <mxGeometry x="530" y="500" width="100" height="40" as="geometry"/>
                </mxCell>
                <mxCell id="75" value="" style="endArrow=none;html=1;rounded=0;entryX=0.75;entryY=1;entryDx=0;entryDy=0;exitX=0.5;exitY=0;exitDx=0;exitDy=0;" parent="1" source="74" target="46" edge="1">
                    <mxGeometry relative="1" as="geometry">
                        <mxPoint x="550" y="550" as="sourcePoint"/>
                        <mxPoint x="540" y="460" as="targetPoint"/>
                    </mxGeometry>
                </mxCell>
                <mxCell id="77" value="&lt;u&gt;option_id&lt;/u&gt;" style="ellipse;whiteSpace=wrap;html=1;align=center;fillColor=#f0a30a;fontColor=#000000;strokeColor=#BD7000;" parent="1" vertex="1">
                    <mxGeometry x="480" y="10" width="100" height="40" as="geometry"/>
                </mxCell>
                <mxCell id="78" value="features" style="ellipse;whiteSpace=wrap;html=1;align=center;fillColor=#f0a30a;fontColor=#000000;strokeColor=#BD7000;" parent="1" vertex="1">
                    <mxGeometry x="630" y="10" width="100" height="40" as="geometry"/>
                </mxCell>
                <mxCell id="79" value="" style="endArrow=none;html=1;rounded=0;entryX=1;entryY=1;entryDx=0;entryDy=0;exitX=0.25;exitY=0;exitDx=0;exitDy=0;" parent="1" source="35" target="77" edge="1">
                    <mxGeometry relative="1" as="geometry">
                        <mxPoint x="660" y="160" as="sourcePoint"/>
                        <mxPoint x="590" y="120" as="targetPoint"/>
                    </mxGeometry>
                </mxCell>
                <mxCell id="80" value="" style="endArrow=none;html=1;rounded=0;entryX=0.5;entryY=1;entryDx=0;entryDy=0;exitX=0.75;exitY=0;exitDx=0;exitDy=0;" parent="1" source="35" target="78" edge="1">
                    <mxGeometry relative="1" as="geometry">
                        <mxPoint x="670" y="170" as="sourcePoint"/>
                        <mxPoint x="600" y="130" as="targetPoint"/>
                    </mxGeometry>
                </mxCell>
                <mxCell id="uzzGBu6hB24RylXoIPg--81" value="has" style="shape=rhombus;perimeter=rhombusPerimeter;whiteSpace=wrap;html=1;align=center;fillColor=#B7E8B7;strokeColor=#82b366;fontColor=#000000;" parent="1" vertex="1">
                    <mxGeometry x="374" y="120" width="100" height="60" as="geometry"/>
                </mxCell>
                <mxCell id="uzzGBu6hB24RylXoIPg--82" value="" style="endArrow=none;html=1;rounded=0;entryX=0.5;entryY=1;entryDx=0;entryDy=0;exitX=0;exitY=0;exitDx=0;exitDy=0;" parent="1" source="34" target="uzzGBu6hB24RylXoIPg--81" edge="1">
                    <mxGeometry relative="1" as="geometry">
                        <mxPoint x="370" y="200" as="sourcePoint"/>
                        <mxPoint x="260" y="180" as="targetPoint"/>
                    </mxGeometry>
                </mxCell>
                <mxCell id="uzzGBu6hB24RylXoIPg--83" value="" style="endArrow=none;html=1;rounded=0;entryX=0.5;entryY=0;entryDx=0;entryDy=0;exitX=0;exitY=0.5;exitDx=0;exitDy=0;" parent="1" source="35" target="uzzGBu6hB24RylXoIPg--81" edge="1">
                    <mxGeometry relative="1" as="geometry">
                        <mxPoint x="380" y="210" as="sourcePoint"/>
                        <mxPoint x="270" y="190" as="targetPoint"/>
                    </mxGeometry>
                </mxCell>
                <mxCell id="uzzGBu6hB24RylXoIPg--84" value="" style="endArrow=none;html=1;rounded=0;entryX=1;entryY=0;entryDx=0;entryDy=0;" parent="1" source="uzzGBu6hB24RylXoIPg--81" target="33" edge="1">
                    <mxGeometry relative="1" as="geometry">
                        <mxPoint x="390" y="220" as="sourcePoint"/>
                        <mxPoint x="280" y="200" as="targetPoint"/>
                    </mxGeometry>
                </mxCell>
                <mxCell id="uzzGBu6hB24RylXoIPg--85" value="" style="shape=link;html=1;rounded=0;exitX=0.5;exitY=0;exitDx=0;exitDy=0;entryX=0;entryY=1;entryDx=0;entryDy=0;" parent="1" source="72" target="34" edge="1">
                    <mxGeometry relative="1" as="geometry">
                        <mxPoint x="330" y="310" as="sourcePoint"/>
                        <mxPoint x="610" y="335" as="targetPoint"/>
                    </mxGeometry>
                </mxCell>
                <mxCell id="uzzGBu6hB24RylXoIPg--87" value="" style="shape=link;html=1;rounded=0;exitX=1;exitY=0.5;exitDx=0;exitDy=0;entryX=0;entryY=0.5;entryDx=0;entryDy=0;" parent="1" source="33" target="70" edge="1">
                    <mxGeometry relative="1" as="geometry">
                        <mxPoint x="555" y="345" as="sourcePoint"/>
                        <mxPoint x="570" y="300" as="targetPoint"/>
                    </mxGeometry>
                </mxCell>
            </root>
        </mxGraphModel>
    </diagram>
    <diagram name="q2" id="W5WWy4s-yDU0bQTaft-W">
        <mxGraphModel dx="1091" dy="716" grid="0" gridSize="10" guides="1" tooltips="1" connect="1" arrows="1" fold="1" page="0" pageScale="1" pageWidth="827" pageHeight="1169" background="none" math="0" shadow="0">
            <root>
                <mxCell id="LuchK6jq1WZe3_gwEDno-0"/>
                <mxCell id="LuchK6jq1WZe3_gwEDno-1" parent="LuchK6jq1WZe3_gwEDno-0"/>
                <mxCell id="v5k6Ozarhfv6iMcxaEXD-3" value="&lt;u&gt;customer_id&lt;/u&gt;" style="ellipse;whiteSpace=wrap;html=1;fillColor=#f0a30a;fontColor=#000000;strokeColor=#BD7000;" parent="LuchK6jq1WZe3_gwEDno-1" vertex="1">
                    <mxGeometry x="119" y="220" width="100" height="50" as="geometry"/>
                </mxCell>
                <mxCell id="v5k6Ozarhfv6iMcxaEXD-4" value="" style="endArrow=none;html=1;exitX=1;exitY=1;exitDx=0;exitDy=0;entryX=0.25;entryY=0;entryDx=0;entryDy=0;" parent="LuchK6jq1WZe3_gwEDno-1" source="v5k6Ozarhfv6iMcxaEXD-3" target="v5k6Ozarhfv6iMcxaEXD-7" edge="1">
                    <mxGeometry width="50" height="50" relative="1" as="geometry">
                        <mxPoint x="249" y="370" as="sourcePoint"/>
                        <mxPoint x="309" y="340" as="targetPoint"/>
                    </mxGeometry>
                </mxCell>
                <mxCell id="v5k6Ozarhfv6iMcxaEXD-5" value="contents" style="ellipse;whiteSpace=wrap;html=1;align=center;fillColor=#f0a30a;fontColor=#000000;strokeColor=#BD7000;" parent="LuchK6jq1WZe3_gwEDno-1" vertex="1">
                    <mxGeometry x="139" y="660" width="100" height="40" as="geometry"/>
                </mxCell>
                <mxCell id="v5k6Ozarhfv6iMcxaEXD-6" value="" style="endArrow=none;html=1;rounded=0;entryX=0.25;entryY=1;entryDx=0;entryDy=0;exitX=0.5;exitY=0;exitDx=0;exitDy=0;" parent="LuchK6jq1WZe3_gwEDno-1" source="v5k6Ozarhfv6iMcxaEXD-5" target="v5k6Ozarhfv6iMcxaEXD-8" edge="1">
                    <mxGeometry relative="1" as="geometry">
                        <mxPoint x="126.67533905932811" y="455.85786437626894" as="sourcePoint"/>
                        <mxPoint x="259" y="460" as="targetPoint"/>
                    </mxGeometry>
                </mxCell>
                <mxCell id="v5k6Ozarhfv6iMcxaEXD-7" value="Customer" style="rounded=1;arcSize=10;whiteSpace=wrap;html=1;align=center;fillColor=#0050ef;fontColor=#ffffff;strokeColor=#001DBC;" parent="LuchK6jq1WZe3_gwEDno-1" vertex="1">
                    <mxGeometry x="229" y="310" width="100" height="40" as="geometry"/>
                </mxCell>
                <mxCell id="v5k6Ozarhfv6iMcxaEXD-8" value="Package" style="rounded=1;arcSize=10;whiteSpace=wrap;html=1;align=center;fillColor=#0050ef;fontColor=#ffffff;strokeColor=#001DBC;" parent="LuchK6jq1WZe3_gwEDno-1" vertex="1">
                    <mxGeometry x="229" y="570" width="100" height="40" as="geometry"/>
                </mxCell>
                <mxCell id="v5k6Ozarhfv6iMcxaEXD-9" value="receives" style="shape=rhombus;perimeter=rhombusPerimeter;whiteSpace=wrap;html=1;align=center;fillColor=#B7E8B7;strokeColor=#82b366;fontColor=#000000;" parent="LuchK6jq1WZe3_gwEDno-1" vertex="1">
                    <mxGeometry x="169" y="440" width="100" height="60" as="geometry"/>
                </mxCell>
                <mxCell id="v5k6Ozarhfv6iMcxaEXD-10" value="ships" style="shape=rhombus;perimeter=rhombusPerimeter;whiteSpace=wrap;html=1;align=center;fillColor=#B7E8B7;strokeColor=#82b366;fontColor=#000000;" parent="LuchK6jq1WZe3_gwEDno-1" vertex="1">
                    <mxGeometry x="289" y="440" width="100" height="60" as="geometry"/>
                </mxCell>
                <mxCell id="v5k6Ozarhfv6iMcxaEXD-11" value="" style="endArrow=none;html=1;rounded=0;entryX=0.25;entryY=1;entryDx=0;entryDy=0;exitX=0.5;exitY=0;exitDx=0;exitDy=0;" parent="LuchK6jq1WZe3_gwEDno-1" source="v5k6Ozarhfv6iMcxaEXD-9" target="v5k6Ozarhfv6iMcxaEXD-7" edge="1">
                    <mxGeometry relative="1" as="geometry">
                        <mxPoint x="139" y="550" as="sourcePoint"/>
                        <mxPoint x="229" y="510" as="targetPoint"/>
                    </mxGeometry>
                </mxCell>
                <mxCell id="v5k6Ozarhfv6iMcxaEXD-13" value="" style="endArrow=none;html=1;rounded=0;entryX=0.75;entryY=1;entryDx=0;entryDy=0;exitX=0.5;exitY=0;exitDx=0;exitDy=0;" parent="LuchK6jq1WZe3_gwEDno-1" source="v5k6Ozarhfv6iMcxaEXD-10" target="v5k6Ozarhfv6iMcxaEXD-7" edge="1">
                    <mxGeometry relative="1" as="geometry">
                        <mxPoint x="159" y="570" as="sourcePoint"/>
                        <mxPoint x="249" y="530" as="targetPoint"/>
                    </mxGeometry>
                </mxCell>
                <mxCell id="v5k6Ozarhfv6iMcxaEXD-15" value="&lt;u&gt;package_id&lt;br&gt;&lt;/u&gt;" style="ellipse;whiteSpace=wrap;html=1;align=center;fillColor=#f0a30a;fontColor=#000000;strokeColor=#BD7000;" parent="LuchK6jq1WZe3_gwEDno-1" vertex="1">
                    <mxGeometry x="219" y="710" width="100" height="40" as="geometry"/>
                </mxCell>
                <mxCell id="v5k6Ozarhfv6iMcxaEXD-16" value="" style="endArrow=none;html=1;rounded=0;entryX=0.5;entryY=1;entryDx=0;entryDy=0;exitX=0.5;exitY=0;exitDx=0;exitDy=0;" parent="LuchK6jq1WZe3_gwEDno-1" source="v5k6Ozarhfv6iMcxaEXD-15" target="v5k6Ozarhfv6iMcxaEXD-8" edge="1">
                    <mxGeometry relative="1" as="geometry">
                        <mxPoint x="149" y="560" as="sourcePoint"/>
                        <mxPoint x="239" y="520" as="targetPoint"/>
                    </mxGeometry>
                </mxCell>
                <mxCell id="v5k6Ozarhfv6iMcxaEXD-17" value="weight" style="ellipse;whiteSpace=wrap;html=1;align=center;fillColor=#f0a30a;fontColor=#000000;strokeColor=#BD7000;" parent="LuchK6jq1WZe3_gwEDno-1" vertex="1">
                    <mxGeometry x="309" y="660" width="100" height="40" as="geometry"/>
                </mxCell>
                <mxCell id="v5k6Ozarhfv6iMcxaEXD-18" value="" style="endArrow=none;html=1;rounded=0;entryX=0.75;entryY=1;entryDx=0;entryDy=0;exitX=0.5;exitY=0;exitDx=0;exitDy=0;" parent="LuchK6jq1WZe3_gwEDno-1" source="v5k6Ozarhfv6iMcxaEXD-17" target="v5k6Ozarhfv6iMcxaEXD-8" edge="1">
                    <mxGeometry relative="1" as="geometry">
                        <mxPoint x="159" y="650" as="sourcePoint"/>
                        <mxPoint x="239" y="570" as="targetPoint"/>
                    </mxGeometry>
                </mxCell>
                <mxCell id="v5k6Ozarhfv6iMcxaEXD-19" value="location" style="rounded=1;arcSize=10;whiteSpace=wrap;html=1;align=center;fillColor=#0050ef;fontColor=#ffffff;strokeColor=#001DBC;" parent="LuchK6jq1WZe3_gwEDno-1" vertex="1">
                    <mxGeometry x="619" y="570" width="100" height="40" as="geometry"/>
                </mxCell>
                <mxCell id="v5k6Ozarhfv6iMcxaEXD-20" value="&lt;u&gt;location_id&lt;br&gt;&lt;/u&gt;" style="ellipse;whiteSpace=wrap;html=1;align=center;fillColor=#f0a30a;fontColor=#000000;strokeColor=#BD7000;" parent="LuchK6jq1WZe3_gwEDno-1" vertex="1">
                    <mxGeometry x="529" y="500" width="100" height="40" as="geometry"/>
                </mxCell>
                <mxCell id="v5k6Ozarhfv6iMcxaEXD-21" value="address" style="ellipse;whiteSpace=wrap;html=1;align=center;fillColor=#f0a30a;fontColor=#000000;strokeColor=#BD7000;" parent="LuchK6jq1WZe3_gwEDno-1" vertex="1">
                    <mxGeometry x="609" y="450" width="100" height="40" as="geometry"/>
                </mxCell>
                <mxCell id="v5k6Ozarhfv6iMcxaEXD-22" value="" style="endArrow=none;html=1;rounded=0;entryX=0.5;entryY=0;entryDx=0;entryDy=0;exitX=0.5;exitY=1;exitDx=0;exitDy=0;" parent="LuchK6jq1WZe3_gwEDno-1" source="v5k6Ozarhfv6iMcxaEXD-21" target="v5k6Ozarhfv6iMcxaEXD-19" edge="1">
                    <mxGeometry relative="1" as="geometry">
                        <mxPoint x="659" y="490" as="sourcePoint"/>
                        <mxPoint x="659" y="570" as="targetPoint"/>
                    </mxGeometry>
                </mxCell>
                <mxCell id="v5k6Ozarhfv6iMcxaEXD-23" value="name" style="ellipse;whiteSpace=wrap;html=1;align=center;fillColor=#f0a30a;fontColor=#000000;strokeColor=#BD7000;" parent="LuchK6jq1WZe3_gwEDno-1" vertex="1">
                    <mxGeometry x="209" y="190" width="100" height="40" as="geometry"/>
                </mxCell>
                <mxCell id="v5k6Ozarhfv6iMcxaEXD-24" value="" style="endArrow=none;html=1;exitX=0.5;exitY=1;exitDx=0;exitDy=0;entryX=0.5;entryY=0;entryDx=0;entryDy=0;" parent="LuchK6jq1WZe3_gwEDno-1" source="v5k6Ozarhfv6iMcxaEXD-23" target="v5k6Ozarhfv6iMcxaEXD-7" edge="1">
                    <mxGeometry width="50" height="50" relative="1" as="geometry">
                        <mxPoint x="239.50601067457524" y="272.3410421766473" as="sourcePoint"/>
                        <mxPoint x="278.49" y="310" as="targetPoint"/>
                    </mxGeometry>
                </mxCell>
                <mxCell id="v5k6Ozarhfv6iMcxaEXD-25" value="" style="endArrow=none;html=1;exitX=0.372;exitY=0.95;exitDx=0;exitDy=0;entryX=0.75;entryY=0;entryDx=0;entryDy=0;exitPerimeter=0;" parent="LuchK6jq1WZe3_gwEDno-1" source="v5k6Ozarhfv6iMcxaEXD-42" target="v5k6Ozarhfv6iMcxaEXD-7" edge="1">
                    <mxGeometry width="50" height="50" relative="1" as="geometry">
                        <mxPoint x="359" y="270" as="sourcePoint"/>
                        <mxPoint x="409" y="327.65999999999997" as="targetPoint"/>
                    </mxGeometry>
                </mxCell>
                <mxCell id="v5k6Ozarhfv6iMcxaEXD-26" value="stores" style="shape=rhombus;perimeter=rhombusPerimeter;whiteSpace=wrap;html=1;align=center;fillColor=#B7E8B7;strokeColor=#82b366;fontColor=#000000;" parent="LuchK6jq1WZe3_gwEDno-1" vertex="1">
                    <mxGeometry x="429" y="560" width="100" height="60" as="geometry"/>
                </mxCell>
                <mxCell id="v5k6Ozarhfv6iMcxaEXD-28" value="" style="endArrow=none;html=1;rounded=0;entryX=0;entryY=0.5;entryDx=0;entryDy=0;exitX=1;exitY=0.5;exitDx=0;exitDy=0;" parent="LuchK6jq1WZe3_gwEDno-1" source="v5k6Ozarhfv6iMcxaEXD-26" target="v5k6Ozarhfv6iMcxaEXD-19" edge="1">
                    <mxGeometry relative="1" as="geometry">
                        <mxPoint x="529" y="560" as="sourcePoint"/>
                        <mxPoint x="379" y="520" as="targetPoint"/>
                    </mxGeometry>
                </mxCell>
                <mxCell id="v5k6Ozarhfv6iMcxaEXD-29" value="country" style="ellipse;whiteSpace=wrap;html=1;align=center;fillColor=#f0a30a;fontColor=#000000;strokeColor=#BD7000;" parent="LuchK6jq1WZe3_gwEDno-1" vertex="1">
                    <mxGeometry x="579" y="340" width="100" height="40" as="geometry"/>
                </mxCell>
                <mxCell id="v5k6Ozarhfv6iMcxaEXD-30" value="street" style="ellipse;whiteSpace=wrap;html=1;align=center;fillColor=#f0a30a;fontColor=#000000;strokeColor=#BD7000;" parent="LuchK6jq1WZe3_gwEDno-1" vertex="1">
                    <mxGeometry x="519" y="390" width="100" height="40" as="geometry"/>
                </mxCell>
                <mxCell id="v5k6Ozarhfv6iMcxaEXD-31" value="PIN" style="ellipse;whiteSpace=wrap;html=1;align=center;fillColor=#f0a30a;fontColor=#000000;strokeColor=#BD7000;" parent="LuchK6jq1WZe3_gwEDno-1" vertex="1">
                    <mxGeometry x="679" y="370" width="100" height="40" as="geometry"/>
                </mxCell>
                <mxCell id="v5k6Ozarhfv6iMcxaEXD-32" value="" style="endArrow=none;html=1;rounded=0;entryX=0;entryY=0;entryDx=0;entryDy=0;exitX=0.5;exitY=1;exitDx=0;exitDy=0;" parent="LuchK6jq1WZe3_gwEDno-1" source="v5k6Ozarhfv6iMcxaEXD-30" target="v5k6Ozarhfv6iMcxaEXD-21" edge="1">
                    <mxGeometry relative="1" as="geometry">
                        <mxPoint x="609" y="720" as="sourcePoint"/>
                        <mxPoint x="659" y="610" as="targetPoint"/>
                    </mxGeometry>
                </mxCell>
                <mxCell id="v5k6Ozarhfv6iMcxaEXD-33" value="" style="endArrow=none;html=1;rounded=0;entryX=0.5;entryY=0;entryDx=0;entryDy=0;exitX=0.5;exitY=1;exitDx=0;exitDy=0;" parent="LuchK6jq1WZe3_gwEDno-1" source="v5k6Ozarhfv6iMcxaEXD-29" target="v5k6Ozarhfv6iMcxaEXD-21" edge="1">
                    <mxGeometry relative="1" as="geometry">
                        <mxPoint x="619" y="730" as="sourcePoint"/>
                        <mxPoint x="669" y="620" as="targetPoint"/>
                    </mxGeometry>
                </mxCell>
                <mxCell id="v5k6Ozarhfv6iMcxaEXD-34" value="" style="endArrow=none;html=1;rounded=0;entryX=1;entryY=0;entryDx=0;entryDy=0;exitX=0.5;exitY=1;exitDx=0;exitDy=0;" parent="LuchK6jq1WZe3_gwEDno-1" source="v5k6Ozarhfv6iMcxaEXD-31" target="v5k6Ozarhfv6iMcxaEXD-21" edge="1">
                    <mxGeometry relative="1" as="geometry">
                        <mxPoint x="629" y="740" as="sourcePoint"/>
                        <mxPoint x="679" y="630" as="targetPoint"/>
                    </mxGeometry>
                </mxCell>
                <mxCell id="v5k6Ozarhfv6iMcxaEXD-35" value="" style="endArrow=none;html=1;rounded=0;entryX=0.25;entryY=0;entryDx=0;entryDy=0;exitX=0.5;exitY=1;exitDx=0;exitDy=0;" parent="LuchK6jq1WZe3_gwEDno-1" source="v5k6Ozarhfv6iMcxaEXD-20" target="v5k6Ozarhfv6iMcxaEXD-19" edge="1">
                    <mxGeometry relative="1" as="geometry">
                        <mxPoint x="689" y="770" as="sourcePoint"/>
                        <mxPoint x="684" y="610" as="targetPoint"/>
                    </mxGeometry>
                </mxCell>
                <mxCell id="v5k6Ozarhfv6iMcxaEXD-36" value="&lt;u&gt;location_type&lt;/u&gt;" style="ellipse;whiteSpace=wrap;html=1;align=center;fillColor=#f0a30a;fontColor=#000000;strokeColor=#BD7000;" parent="LuchK6jq1WZe3_gwEDno-1" vertex="1">
                    <mxGeometry x="709" y="500" width="100" height="40" as="geometry"/>
                </mxCell>
                <mxCell id="v5k6Ozarhfv6iMcxaEXD-37" value="" style="endArrow=none;html=1;rounded=0;exitX=0.75;exitY=0;exitDx=0;exitDy=0;entryX=0.5;entryY=1;entryDx=0;entryDy=0;" parent="LuchK6jq1WZe3_gwEDno-1" source="v5k6Ozarhfv6iMcxaEXD-19" target="v5k6Ozarhfv6iMcxaEXD-36" edge="1">
                    <mxGeometry relative="1" as="geometry">
                        <mxPoint x="659" y="230" as="sourcePoint"/>
                        <mxPoint x="679" y="410" as="targetPoint"/>
                    </mxGeometry>
                </mxCell>
                <mxCell id="v5k6Ozarhfv6iMcxaEXD-38" value="time_received" style="ellipse;whiteSpace=wrap;html=1;align=center;fillColor=#f0a30a;fontColor=#000000;strokeColor=#BD7000;" parent="LuchK6jq1WZe3_gwEDno-1" vertex="1">
                    <mxGeometry x="19" y="450" width="100" height="40" as="geometry"/>
                </mxCell>
                <mxCell id="v5k6Ozarhfv6iMcxaEXD-39" value="time_shipped" style="ellipse;whiteSpace=wrap;html=1;align=center;fillColor=#f0a30a;fontColor=#000000;strokeColor=#BD7000;" parent="LuchK6jq1WZe3_gwEDno-1" vertex="1">
                    <mxGeometry x="433" y="450" width="100" height="40" as="geometry"/>
                </mxCell>
                <mxCell id="v5k6Ozarhfv6iMcxaEXD-40" value="" style="endArrow=none;html=1;exitX=1;exitY=0.5;exitDx=0;exitDy=0;entryX=0;entryY=0.5;entryDx=0;entryDy=0;" parent="LuchK6jq1WZe3_gwEDno-1" source="v5k6Ozarhfv6iMcxaEXD-10" target="v5k6Ozarhfv6iMcxaEXD-39" edge="1">
                    <mxGeometry width="50" height="50" relative="1" as="geometry">
                        <mxPoint x="389.00343829967585" y="382.4865761892032" as="sourcePoint"/>
                        <mxPoint x="428.27" y="420" as="targetPoint"/>
                    </mxGeometry>
                </mxCell>
                <mxCell id="v5k6Ozarhfv6iMcxaEXD-41" value="" style="endArrow=none;html=1;entryX=1;entryY=0.5;entryDx=0;entryDy=0;exitX=0;exitY=0.5;exitDx=0;exitDy=0;" parent="LuchK6jq1WZe3_gwEDno-1" source="v5k6Ozarhfv6iMcxaEXD-9" target="v5k6Ozarhfv6iMcxaEXD-38" edge="1">
                    <mxGeometry width="50" height="50" relative="1" as="geometry">
                        <mxPoint x="169" y="480" as="sourcePoint"/>
                        <mxPoint x="254" y="330" as="targetPoint"/>
                    </mxGeometry>
                </mxCell>
                <mxCell id="v5k6Ozarhfv6iMcxaEXD-42" value="address" style="ellipse;whiteSpace=wrap;html=1;align=center;fillColor=#f0a30a;fontColor=#000000;strokeColor=#BD7000;" parent="LuchK6jq1WZe3_gwEDno-1" vertex="1">
                    <mxGeometry x="299" y="225" width="100" height="40" as="geometry"/>
                </mxCell>
                <mxCell id="v5k6Ozarhfv6iMcxaEXD-43" value="country" style="ellipse;whiteSpace=wrap;html=1;align=center;fillColor=#f0a30a;fontColor=#000000;strokeColor=#BD7000;" parent="LuchK6jq1WZe3_gwEDno-1" vertex="1">
                    <mxGeometry x="429" y="160" width="100" height="40" as="geometry"/>
                </mxCell>
                <mxCell id="v5k6Ozarhfv6iMcxaEXD-44" value="street" style="ellipse;whiteSpace=wrap;html=1;align=center;fillColor=#f0a30a;fontColor=#000000;strokeColor=#BD7000;" parent="LuchK6jq1WZe3_gwEDno-1" vertex="1">
                    <mxGeometry x="319" y="130" width="100" height="40" as="geometry"/>
                </mxCell>
                <mxCell id="v5k6Ozarhfv6iMcxaEXD-45" value="PIN" style="ellipse;whiteSpace=wrap;html=1;align=center;fillColor=#f0a30a;fontColor=#000000;strokeColor=#BD7000;" parent="LuchK6jq1WZe3_gwEDno-1" vertex="1">
                    <mxGeometry x="509" y="200" width="100" height="40" as="geometry"/>
                </mxCell>
                <mxCell id="v5k6Ozarhfv6iMcxaEXD-46" value="" style="endArrow=none;html=1;rounded=0;entryX=0.5;entryY=0;entryDx=0;entryDy=0;exitX=0.5;exitY=1;exitDx=0;exitDy=0;" parent="LuchK6jq1WZe3_gwEDno-1" source="v5k6Ozarhfv6iMcxaEXD-44" target="v5k6Ozarhfv6iMcxaEXD-42" edge="1">
                    <mxGeometry relative="1" as="geometry">
                        <mxPoint x="511" y="150" as="sourcePoint"/>
                        <mxPoint x="561" y="40" as="targetPoint"/>
                    </mxGeometry>
                </mxCell>
                <mxCell id="v5k6Ozarhfv6iMcxaEXD-47" value="" style="endArrow=none;html=1;rounded=0;entryX=1;entryY=0;entryDx=0;entryDy=0;exitX=0;exitY=1;exitDx=0;exitDy=0;" parent="LuchK6jq1WZe3_gwEDno-1" source="v5k6Ozarhfv6iMcxaEXD-43" target="v5k6Ozarhfv6iMcxaEXD-42" edge="1">
                    <mxGeometry relative="1" as="geometry">
                        <mxPoint x="521" y="160" as="sourcePoint"/>
                        <mxPoint x="571" y="50" as="targetPoint"/>
                    </mxGeometry>
                </mxCell>
                <mxCell id="v5k6Ozarhfv6iMcxaEXD-48" value="" style="endArrow=none;html=1;rounded=0;entryX=1;entryY=0.5;entryDx=0;entryDy=0;exitX=0;exitY=0.5;exitDx=0;exitDy=0;" parent="LuchK6jq1WZe3_gwEDno-1" source="v5k6Ozarhfv6iMcxaEXD-45" target="v5k6Ozarhfv6iMcxaEXD-42" edge="1">
                    <mxGeometry relative="1" as="geometry">
                        <mxPoint x="531" y="170" as="sourcePoint"/>
                        <mxPoint x="581" y="60" as="targetPoint"/>
                    </mxGeometry>
                </mxCell>
                <mxCell id="im-ZCCyi__lY-McHYHEK-2" value="" style="shape=link;html=1;rounded=0;entryX=0;entryY=0.5;entryDx=0;entryDy=0;exitX=1;exitY=0.5;exitDx=0;exitDy=0;" parent="LuchK6jq1WZe3_gwEDno-1" source="v5k6Ozarhfv6iMcxaEXD-8" target="v5k6Ozarhfv6iMcxaEXD-26" edge="1">
                    <mxGeometry relative="1" as="geometry">
                        <mxPoint x="240" y="450" as="sourcePoint"/>
                        <mxPoint x="460" y="780" as="targetPoint"/>
                    </mxGeometry>
                </mxCell>
                <mxCell id="im-ZCCyi__lY-McHYHEK-4" value="" style="shape=link;html=1;rounded=0;entryX=0.75;entryY=0;entryDx=0;entryDy=0;exitX=0.5;exitY=1;exitDx=0;exitDy=0;" parent="LuchK6jq1WZe3_gwEDno-1" source="v5k6Ozarhfv6iMcxaEXD-10" target="v5k6Ozarhfv6iMcxaEXD-8" edge="1">
                    <mxGeometry relative="1" as="geometry">
                        <mxPoint x="339" y="600" as="sourcePoint"/>
                        <mxPoint x="439" y="600" as="targetPoint"/>
                    </mxGeometry>
                </mxCell>
                <mxCell id="im-ZCCyi__lY-McHYHEK-5" value="" style="shape=link;html=1;rounded=0;entryX=0.25;entryY=0;entryDx=0;entryDy=0;exitX=0.5;exitY=1;exitDx=0;exitDy=0;" parent="LuchK6jq1WZe3_gwEDno-1" source="v5k6Ozarhfv6iMcxaEXD-9" target="v5k6Ozarhfv6iMcxaEXD-8" edge="1">
                    <mxGeometry relative="1" as="geometry">
                        <mxPoint x="349" y="610" as="sourcePoint"/>
                        <mxPoint x="449" y="610" as="targetPoint"/>
                    </mxGeometry>
                </mxCell>
            </root>
        </mxGraphModel>
    </diagram>
</mxfile>